<svg width="38" height="38" viewBox="0 0 38 38" fill="none" xmlns="http://www.w3.org/2000/svg">
<path fill-rule="evenodd" clip-rule="evenodd" d="M18.5347 0C8.29582 0 0 8.30184 0 18.5313C0 28.2552 7.50184 36.2366 17.0312 37.0024V37.0693H18.5347C28.7735 37.0693 37.0693 28.7675 37.0693 18.538C37.0693 8.30932 28.7742 0 18.5347 0ZM22.6302 33.5171C21.4674 33.8343 20.2502 34.0197 18.9956 34.0563H18.5347C16.4426 34.0563 14.4468 33.6419 12.6248 32.8908C14.3889 26.5346 19.1711 21.9817 24.6448 19.9473C25.5894 24.5253 24.9037 29.4311 22.6302 33.5171ZM23.8114 17.0519C17.5641 19.3021 12.108 24.3706 9.91568 31.4444C5.75097 28.6589 3.00686 23.9135 3.00686 18.5313C3.00686 16.6227 3.35159 14.7942 3.98225 13.1048C5.86208 14.0414 7.87215 14.704 9.93926 15.0724C12.5725 15.5552 15.2703 15.5392 17.8959 15.0658C19.3904 14.796 20.8494 14.3662 22.2483 13.7935C22.871 14.8287 23.3947 15.9195 23.8114 17.0519ZM27.543 19.1198C28.4457 23.2868 28.172 27.7027 26.7312 31.7257C31.0058 29.0638 33.8916 24.3825 34.0551 19.0195C31.9302 18.6343 29.7153 18.6813 27.543 19.1198ZM33.8462 15.9416C31.493 15.6111 29.073 15.7185 26.7092 16.2235C26.2436 14.9174 25.656 13.6591 24.9559 12.4644C26.898 11.3427 28.6716 9.93099 30.1962 8.28483C32.0608 10.405 33.3569 13.037 33.8462 15.9416ZM10.4705 12.1134C8.67477 11.7937 6.93056 11.2173 5.30287 10.4039C6.70277 8.13071 8.67225 6.24524 11.0126 4.94676L11.0307 4.95244L11.0313 4.95265L11.0314 4.95268L11.0315 4.95269C11.2864 5.03293 11.5298 5.10953 11.7642 5.19366C11.8507 5.22669 11.9354 5.25879 12.0181 5.29017L12.0195 5.29066L12.0195 5.29069L12.0196 5.2907C12.3996 5.43481 12.739 5.5635 13.0226 5.69494L13.1035 5.73539L13.1228 5.74435C13.3018 5.82762 13.5598 5.95059 13.7923 6.06145C13.9158 6.12041 14.0322 6.1759 14.1258 6.22015L14.1292 6.22206C14.2074 6.26405 14.2731 6.29933 14.3343 6.33582C14.3842 6.36814 14.4286 6.39432 14.4525 6.40828C14.4961 6.43382 14.5409 6.45907 14.5779 6.47963C14.6095 6.49718 14.6405 6.51427 14.6637 6.52701L14.6754 6.53344L14.7001 6.54711L14.7032 6.54891C14.7377 6.56878 14.7795 6.59264 14.8272 6.61986C14.9294 6.67819 15.0586 6.75192 15.2005 6.83498C15.3006 6.89359 15.3942 6.94949 15.4705 6.99681C15.5273 7.03206 15.5581 7.05251 15.5699 7.06029L15.5705 7.06075C15.5753 7.06396 15.5765 7.06471 15.5745 7.06323L15.6405 7.11317L15.7137 7.15667C15.8253 7.22294 15.9354 7.29908 16.0727 7.39409L16.0727 7.39412L16.0728 7.39415L16.0734 7.39455C16.136 7.43793 16.2044 7.48526 16.2812 7.53738L16.3334 7.57277L16.3778 7.5978C16.3777 7.59787 16.3798 7.59927 16.3842 7.60225C16.3962 7.61029 16.4251 7.62981 16.4756 7.66597C16.5533 7.72157 16.6471 7.79137 16.7503 7.86898L16.8725 7.96107C16.9353 8.00851 16.999 8.05659 17.0533 8.09713C17.1248 8.15071 17.2124 8.21575 17.2915 8.27055C18.4452 9.15294 19.4999 10.1605 20.4388 11.2711C19.4398 11.6366 18.4102 11.918 17.3619 12.1072C15.0767 12.5192 12.7426 12.5304 10.4784 12.1148L10.4744 12.1141L10.4705 12.1134ZM18.5347 3.00631C22.0987 3.00631 25.3821 4.20839 28.0026 6.22853C26.6287 7.71497 25.0198 8.9809 23.2581 9.97158C22.047 8.43214 20.6457 7.04614 19.0834 5.85606L19.0457 5.82733L19.0065 5.80121L18.9959 5.79379C18.9875 5.7879 18.9764 5.77995 18.9622 5.7696C18.9333 5.74864 18.8976 5.72219 18.8547 5.69009C18.8061 5.65372 18.7573 5.61692 18.7049 5.57739L18.7048 5.57731L18.6941 5.56921C18.6516 5.53714 18.6067 5.50321 18.5575 5.46622C18.451 5.38617 18.3342 5.2991 18.227 5.22224C18.152 5.16852 18.0443 5.09254 17.9342 5.02553L17.8644 4.97725L17.864 4.97698L17.864 4.97696C17.7209 4.87783 17.5062 4.72911 17.3108 4.60915C17.1283 4.48122 16.8817 4.33547 16.7201 4.24084C16.5637 4.14922 16.3952 4.05307 16.2906 3.99337L16.2897 3.9929L16.2105 3.9476C16.1909 3.93613 16.1738 3.92665 16.1672 3.92294L16.1663 3.92242L16.1257 3.89996L16.1119 3.89239C16.0886 3.87955 16.0652 3.8667 16.041 3.85318C16.0132 3.83772 15.9907 3.82497 15.9743 3.81542L15.963 3.80752L15.9231 3.78314C15.7787 3.6949 15.6283 3.61433 15.5466 3.57058L15.5448 3.56965L15.5164 3.55441L15.4815 3.53561L15.4456 3.51867C15.3739 3.4848 15.2678 3.43428 15.1474 3.37688C16.2377 3.13428 17.3712 3.00631 18.5347 3.00631Z" fill="white"/>
</svg>
