<svg width="38" height="38" viewBox="0 0 38 38" fill="none" xmlns="http://www.w3.org/2000/svg">
<g clip-path="url(#clip0_17_17)">
<path fill-rule="evenodd" clip-rule="evenodd" d="M18.6887 0C8.431 0 0.138672 8.35346 0.138672 18.6878C0.138672 26.9486 5.45185 33.9412 12.8226 36.4161C13.7442 36.6022 14.0817 36.014 14.0817 35.5193C14.0817 35.086 14.0514 33.601 14.0514 32.0537C8.8912 33.1678 7.81664 29.826 7.81664 29.826C6.98737 27.6602 5.75865 27.1035 5.75865 27.1035C4.06973 25.9587 5.88167 25.9587 5.88167 25.9587C7.75513 26.0825 8.73818 27.877 8.73818 27.877C10.3963 30.7233 13.0683 29.919 14.1432 29.4239C14.2966 28.2172 14.7884 27.3819 15.3104 26.9179C11.1949 26.4846 6.86472 24.8758 6.86472 17.6976C6.86472 15.6555 7.60135 13.9848 8.76855 12.6855C8.5844 12.2215 7.93928 10.3029 8.95309 7.73492C8.95309 7.73492 10.5194 7.23979 14.051 9.65318C15.563 9.24411 17.1223 9.03602 18.6887 9.03426C20.2549 9.03426 21.8516 9.25107 23.326 9.65318C26.858 7.23979 28.4242 7.73492 28.4242 7.73492C29.438 10.3029 28.7925 12.2215 28.6084 12.6855C29.8064 13.9848 30.5126 15.6555 30.5126 17.6976C30.5126 24.8758 26.1825 26.4535 22.0361 26.9179C22.712 27.5057 23.2952 28.6193 23.2952 30.383C23.2952 32.8891 23.2648 34.9004 23.2648 35.5189C23.2648 36.014 23.6028 36.6022 24.5239 36.4165C31.8947 33.9409 37.2079 26.9486 37.2079 18.6878C37.2383 8.35346 28.9156 0 18.6887 0Z" fill="white"/>
</g>
<defs>
<clipPath id="clip0_17_17">
<rect width="37.0693" height="37.0693" fill="white" transform="translate(0.138672)"/>
</clipPath>
</defs>
</svg>
