<svg width="38" height="38" viewBox="0 0 38 38" fill="none" xmlns="http://www.w3.org/2000/svg">
<g clip-path="url(#clip0_17_18)">
<path d="M34.3946 0H2.80609C1.29291 0 0.0693359 1.19462 0.0693359 2.6716V34.3905C0.0693359 35.8674 1.29291 37.0693 2.80609 37.0693H34.3946C35.9078 37.0693 37.1386 35.8674 37.1386 34.3977V2.6716C37.1386 1.19462 35.9078 0 34.3946 0ZM11.067 31.5885H5.56457V13.8937H11.067V31.5885ZM8.31581 11.4828C6.54922 11.4828 5.12292 10.0565 5.12292 8.29715C5.12292 6.53781 6.54922 5.11151 8.31581 5.11151C10.0752 5.11151 11.5015 6.53781 11.5015 8.29715C11.5015 10.0493 10.0752 11.4828 8.31581 11.4828ZM31.6579 31.5885H26.1626V22.9873C26.1626 20.9384 26.1264 18.2957 23.3028 18.2957C20.443 18.2957 20.0086 20.5329 20.0086 22.8425V31.5885H14.5206V13.8937H19.7914V16.3119H19.8638C20.595 14.9218 22.3906 13.4521 25.0622 13.4521C30.6298 13.4521 31.6579 17.1156 31.6579 21.8796V31.5885V31.5885Z" fill="white"/>
</g>
<defs>
<clipPath id="clip0_17_18">
<rect width="37.0693" height="37.0693" fill="white" transform="translate(0.0693359)"/>
</clipPath>
</defs>
</svg>
