<svg width="29" height="29" viewBox="0 0 29 29" fill="none" xmlns="http://www.w3.org/2000/svg">
<path d="M10.8749 15.7084C10.0774 16.1071 9.41284 16.6992 8.91742 17.4363C8.63951 17.8592 8.63951 18.3909 8.91742 18.8138C9.41284 19.5509 10.0774 20.143 10.8749 20.5417" stroke="white" stroke-width="1.5" stroke-linecap="round" stroke-linejoin="round"/>
<path d="M18.3787 15.7084C19.1762 16.1071 19.8407 16.6992 20.3362 17.4363C20.6141 17.8592 20.6141 18.3909 20.3362 18.8138C19.8407 19.5509 19.1762 20.143 18.3787 20.5417" stroke="white" stroke-width="1.5" stroke-linecap="round" stroke-linejoin="round"/>
<path d="M10.8751 26.5833H18.1251C24.1667 26.5833 26.5834 24.1666 26.5834 18.125V10.875C26.5834 4.83329 24.1667 2.41663 18.1251 2.41663H10.8751C4.83341 2.41663 2.41675 4.83329 2.41675 10.875V18.125C2.41675 24.1666 4.83341 26.5833 10.8751 26.5833Z" stroke="white" stroke-width="1.5" stroke-linecap="round" stroke-linejoin="round"/>
<path d="M2.69458 9.67871L25.9187 9.66663" stroke="white" stroke-width="1.5" stroke-linecap="round" stroke-linejoin="round"/>
</svg>
