<svg width="65" height="65" viewBox="0 0 65 65" fill="none" xmlns="http://www.w3.org/2000/svg">
<path d="M57.5985 29.2011V10.9838C57.5985 6.96532 55.8839 5.35791 51.6243 5.35791H40.8011C36.5415 5.35791 34.8269 6.96532 34.8269 10.9838V29.2011C34.8269 33.2196 36.5415 34.827 40.8011 34.827H51.6243C55.8839 34.827 57.5985 33.2196 57.5985 29.2011Z" fill="white"/>
<path d="M29.4691 35.0952V53.3124C29.4691 57.331 27.7545 58.9384 23.4949 58.9384H12.6717C8.41208 58.9384 6.69751 57.331 6.69751 53.3124V35.0952C6.69751 31.0766 8.41208 29.4692 12.6717 29.4692H23.4949C27.7545 29.4692 29.4691 31.0766 29.4691 35.0952Z" fill="white"/>
<path d="M57.5985 53.3122V45.811C57.5985 41.7925 55.8839 40.1851 51.6243 40.1851H40.8011C36.5415 40.1851 34.8269 41.7925 34.8269 45.811V53.3122C34.8269 57.3307 36.5415 58.9381 40.8011 58.9381H51.6243C55.8839 58.9381 57.5985 57.3307 57.5985 53.3122Z" fill="white"/>
<path d="M29.4691 18.4851V10.9838C29.4691 6.96532 27.7545 5.35791 23.4949 5.35791H12.6717C8.41208 5.35791 6.69751 6.96532 6.69751 10.9838V18.4851C6.69751 22.5036 8.41208 24.111 12.6717 24.111H23.4949C27.7545 24.111 29.4691 22.5036 29.4691 18.4851Z" fill="white"/>
</svg>
