<svg width="1436" height="754" viewBox="0 0 1436 754" fill="none" xmlns="http://www.w3.org/2000/svg">
<g clip-path="url(#clip0_23_459)">
<rect x="710" y="371" width="16" height="12" rx="1" stroke="#BBBBBB" stroke-width="2"/>
<path fill-rule="evenodd" clip-rule="evenodd" d="M719.571 380.429L716 376.5L711 382H718H721H725L721.5 378.5L719.571 380.429Z" fill="#BBBBBB"/>
<circle cx="719.5" cy="375" r="1.5" fill="#BBBBBB"/>
<path d="M1433.96 2.88572C1434.45 2.62934 1434.64 2.02496 1434.39 1.53578C1434.13 1.04661 1433.52 0.857899 1433.04 1.11428L1433.96 2.88572ZM748.064 360.114C747.575 360.371 747.386 360.975 747.642 361.464C747.899 361.953 748.503 362.142 748.992 361.886L748.064 360.114ZM687.936 393.886C688.425 393.629 688.614 393.025 688.358 392.536C688.101 392.047 687.497 391.858 687.008 392.114L687.936 393.886ZM2.03578 751.114C1.54661 751.371 1.3579 751.975 1.61428 752.464C1.87066 752.953 2.47504 753.142 2.96422 752.886L2.03578 751.114ZM2.96422 1.11428C2.47504 0.857899 1.87066 1.04661 1.61428 1.53578C1.3579 2.02496 1.54661 2.62934 2.03578 2.88572L2.96422 1.11428ZM687.008 361.886C687.497 362.142 688.101 361.953 688.358 361.464C688.614 360.975 688.425 360.371 687.936 360.114L687.008 361.886ZM748.992 392.114C748.503 391.858 747.899 392.047 747.642 392.536C747.386 393.025 747.575 393.629 748.064 393.886L748.992 392.114ZM1433.04 752.886C1433.52 753.142 1434.13 752.953 1434.39 752.464C1434.64 751.975 1434.45 751.371 1433.96 751.114L1433.04 752.886ZM1433.04 1.11428L748.064 360.114L748.992 361.886L1433.96 2.88572L1433.04 1.11428ZM687.008 392.114L2.03578 751.114L2.96422 752.886L687.936 393.886L687.008 392.114ZM2.03578 2.88572L687.008 361.886L687.936 360.114L2.96422 1.11428L2.03578 2.88572ZM748.064 393.886L1433.04 752.886L1433.96 751.114L748.992 392.114L748.064 393.886Z" fill="#BBBBBB"/>
</g>
<rect x="1.5" y="1" width="1433" height="752" stroke="#BBBBBB" stroke-width="2" stroke-linejoin="round"/>
<defs>
<clipPath id="clip0_23_459">
<rect x="2.5" y="2" width="1431" height="750" fill="white"/>
</clipPath>
</defs>
</svg>
