<svg width="27" height="28" viewBox="0 0 27 28" fill="none" xmlns="http://www.w3.org/2000/svg">
<path d="M13.4054 21.1149C17.3348 21.1149 20.5203 17.9294 20.5203 14C20.5203 10.0706 17.3348 6.88514 13.4054 6.88514C9.47596 6.88514 6.29053 10.0706 6.29053 14C6.29053 17.9294 9.47596 21.1149 13.4054 21.1149Z" stroke="white" stroke-width="1.64189" stroke-linecap="round" stroke-linejoin="round"/>
<path d="M21.2208 21.8154L21.0785 21.6731M21.0785 6.32689L21.2208 6.18459L21.0785 6.32689ZM5.59001 21.8154L5.73231 21.6731L5.59001 21.8154ZM13.4054 3.14162V3.05405V3.14162ZM13.4054 24.9459V24.8584V24.9459ZM2.54704 14H2.45947H2.54704ZM24.3514 14H24.2638H24.3514ZM5.73231 6.32689L5.59001 6.18459L5.73231 6.32689Z" stroke="white" stroke-width="1.64189" stroke-linecap="round" stroke-linejoin="round"/>
</svg>
